<svg xmlns="http://www.w3.org/2000/svg" xmlns:xlink="http://www.w3.org/1999/xlink" width="500" zoomAndPan="magnify" viewBox="0 0 375 374.999991" height="500" preserveAspectRatio="xMidYMid meet" version="1.0"><defs><g/><clipPath id="60d97e6879"><path d="M 37 170 L 81.347656 170 L 81.347656 209 L 37 209 Z M 37 170 " clip-rule="nonzero"/></clipPath><clipPath id="514a0083a7"><path d="M 29.597656 178 L 45 178 L 45 180 L 29.597656 180 Z M 29.597656 178 " clip-rule="nonzero"/></clipPath><clipPath id="31c7685c35"><path d="M 58 166.28125 L 66 166.28125 L 66 176 L 58 176 Z M 58 166.28125 " clip-rule="nonzero"/></clipPath></defs><g clip-path="url(#60d97e6879)"><path fill="#ffde59" d="M 76.488281 188.792969 L 80.851562 194.144531 L 81.03125 194 L 76.789062 188.792969 L 80.671875 188.792969 L 80.671875 188.5625 L 76.609375 188.5625 L 69.765625 180.191406 L 69.585938 180.335938 L 76.296875 188.5625 L 69.476562 188.5625 L 69.476562 187.949219 L 69.261719 187.949219 L 69.261719 188.5625 L 63.609375 188.5625 L 63.609375 179.207031 L 68.621094 179.171875 L 69.078125 179.734375 L 69.246094 179.605469 L 69.246094 179.75 L 69.464844 179.75 L 69.464844 179.160156 L 74.5625 179.121094 L 74.5625 178.929688 L 69.464844 178.964844 L 69.464844 170.96875 L 69.246094 170.96875 L 69.246094 178.976562 L 68.765625 178.976562 L 68.753906 178.953125 L 68.730469 178.976562 L 60.109375 179.039062 L 60.15625 171.378906 L 59.855469 171.378906 L 59.808594 179.039062 L 50.921875 179.097656 L 50.921875 179.292969 L 52.003906 179.277344 L 52.003906 185.882812 L 45.871094 185.84375 L 45.871094 186.519531 L 45.714844 186.519531 L 45.714844 187.335938 L 45.871094 187.335938 L 45.871094 188.105469 L 45.714844 188.105469 L 45.714844 188.492188 L 44.945312 188.492188 L 44.945312 188.71875 L 45.714844 188.71875 L 45.714844 203.992188 L 37.777344 203.992188 L 37.777344 204.195312 L 45.726562 204.195312 L 45.726562 208.707031 L 45.929688 208.707031 L 45.929688 204.195312 L 59.796875 204.195312 L 59.796875 206.289062 L 60.097656 206.289062 L 60.097656 204.195312 L 61.585938 204.195312 L 61.585938 203.992188 L 60.097656 203.992188 L 60.097656 199.636719 L 63.609375 199.636719 L 63.609375 189.210938 C 67.722656 191.351562 65.398438 190.136719 69.261719 192.160156 L 69.261719 203.992188 L 67.851562 203.992188 L 67.851562 204.195312 L 69.261719 204.195312 L 69.261719 206.949219 L 69.476562 206.949219 L 69.476562 204.195312 L 74.5625 204.195312 L 74.5625 203.992188 L 69.476562 203.992188 L 69.476562 192.277344 C 69.5 192.289062 69.523438 192.304688 69.535156 192.316406 L 69.488281 203.957031 L 69.898438 203.957031 L 69.945312 192.074219 C 69.777344 191.988281 69.621094 191.90625 69.464844 191.820312 L 69.464844 188.792969 Z M 69.261719 179.171875 L 69.261719 179.578125 L 68.933594 179.183594 Z M 55.359375 203.644531 L 52.414062 203.644531 L 52.414062 188.765625 L 55.335938 188.78125 Z M 46.277344 188.730469 L 52.003906 188.765625 L 52.003906 204.003906 L 46.242188 204.003906 Z M 52.425781 188.539062 L 52.425781 186.300781 L 55.347656 186.3125 L 55.347656 188.550781 Z M 52.003906 186.300781 L 52.003906 188.539062 L 46.277344 188.503906 L 46.292969 186.265625 Z M 59.796875 204.003906 L 55.765625 204.003906 L 55.753906 188.792969 L 56.574219 188.792969 L 56.574219 188.5625 L 55.753906 188.5625 L 55.753906 185.917969 L 52.425781 185.894531 L 52.425781 179.628906 L 59.820312 179.496094 L 59.796875 182.488281 L 60.097656 182.488281 L 60.121094 179.496094 L 63.222656 179.433594 L 63.222656 188.550781 L 62.851562 188.550781 L 62.851562 188.78125 L 63.128906 188.78125 L 60.109375 190.546875 L 60.109375 188.78125 L 60.492188 188.78125 L 60.492188 188.550781 L 60.046875 188.550781 L 60.046875 188.648438 L 59.796875 188.648438 L 59.796875 190.726562 L 57.332031 192.171875 L 57.257812 199.625 L 59.796875 199.625 Z M 59.796875 191.207031 L 59.796875 199.230469 L 57.667969 199.230469 L 57.738281 192.421875 Z M 63.199219 199.230469 L 60.097656 199.230469 L 60.097656 191.027344 L 63.210938 189.199219 Z M 69.261719 191.703125 C 66.820312 190.425781 66.085938 190.042969 63.679688 188.78125 L 69.261719 188.78125 Z M 69.261719 191.703125 " fill-opacity="1" fill-rule="nonzero"/></g><path fill="#ffde59" d="M 61.25 188.5625 L 62.070312 188.5625 L 62.070312 188.792969 L 61.25 188.792969 Z M 61.25 188.5625 " fill-opacity="1" fill-rule="nonzero"/><path fill="#ffde59" d="M 57.34375 188.5625 L 57.980469 188.5625 L 57.980469 188.792969 L 57.34375 188.792969 Z M 57.34375 188.5625 " fill-opacity="1" fill-rule="nonzero"/><path fill="#ffde59" d="M 58.75 188.5625 L 59.265625 188.5625 L 59.265625 188.792969 L 58.75 188.792969 Z M 58.75 188.5625 " fill-opacity="1" fill-rule="nonzero"/><path fill="#ffde59" d="M 54.671875 195.214844 L 54.671875 195.394531 C 54.960938 195.175781 54.867188 195.355469 54.769531 194.9375 L 54.492188 195.214844 Z M 54.671875 195.214844 " fill-opacity="1" fill-rule="nonzero"/><path fill="#ffde59" d="M 46.855469 179.097656 L 47.375 179.097656 L 47.375 179.292969 L 46.855469 179.292969 Z M 46.855469 179.097656 " fill-opacity="1" fill-rule="nonzero"/><path fill="#ffde59" d="M 48.144531 179.097656 L 48.589844 179.097656 L 48.589844 179.292969 L 48.144531 179.292969 Z M 48.144531 179.097656 " fill-opacity="1" fill-rule="nonzero"/><g clip-path="url(#514a0083a7)"><path fill="#ffde59" d="M 44.679688 179.097656 L 29.597656 178.964844 L 29.597656 179.160156 L 44.679688 179.292969 Z M 44.679688 179.097656 " fill-opacity="1" fill-rule="nonzero"/></g><path fill="#ffde59" d="M 49.34375 179.097656 L 50.164062 179.097656 L 50.164062 179.292969 L 49.34375 179.292969 Z M 49.34375 179.097656 " fill-opacity="1" fill-rule="nonzero"/><path fill="#ffde59" d="M 69.261719 180.757812 L 69.476562 180.757812 L 69.476562 181.601562 L 69.261719 181.601562 Z M 69.261719 180.757812 " fill-opacity="1" fill-rule="nonzero"/><path fill="#ffde59" d="M 69.261719 185.871094 L 69.476562 185.871094 L 69.476562 186.9375 L 69.261719 186.9375 Z M 69.261719 185.871094 " fill-opacity="1" fill-rule="nonzero"/><path fill="#ffde59" d="M 69.261719 184.292969 L 69.476562 184.292969 L 69.476562 184.871094 L 69.261719 184.871094 Z M 69.261719 184.292969 " fill-opacity="1" fill-rule="nonzero"/><path fill="#ffde59" d="M 69.261719 182.597656 L 69.476562 182.597656 L 69.476562 183.285156 L 69.261719 183.285156 Z M 69.261719 182.597656 " fill-opacity="1" fill-rule="nonzero"/><path fill="#ffde59" d="M 45.726562 182.621094 L 45.929688 182.621094 L 45.929688 183.257812 L 45.726562 183.257812 Z M 45.726562 182.621094 " fill-opacity="1" fill-rule="nonzero"/><path fill="#ffde59" d="M 45.726562 185.328125 L 45.929688 185.328125 L 45.929688 185.773438 L 45.726562 185.773438 Z M 45.726562 185.328125 " fill-opacity="1" fill-rule="nonzero"/><path fill="#ffde59" d="M 45.726562 181.851562 L 45.917969 181.851562 L 45.917969 179.292969 L 46.085938 179.292969 L 46.085938 179.097656 L 45.917969 179.097656 L 45.917969 171.761719 L 45.726562 171.761719 L 45.726562 179.097656 L 45.449219 179.097656 L 45.449219 179.292969 L 45.726562 179.292969 Z M 45.726562 181.851562 " fill-opacity="1" fill-rule="nonzero"/><path fill="#ffde59" d="M 45.726562 184.027344 L 45.929688 184.027344 L 45.929688 184.546875 L 45.726562 184.546875 Z M 45.726562 184.027344 " fill-opacity="1" fill-rule="nonzero"/><path fill="#ffde59" d="M 59.796875 183.164062 L 60.097656 183.164062 L 60.097656 183.910156 L 59.796875 183.910156 Z M 59.796875 183.164062 " fill-opacity="1" fill-rule="nonzero"/><path fill="#ffde59" d="M 59.796875 184.570312 L 60.097656 184.570312 L 60.097656 185.195312 L 59.796875 185.195312 Z M 59.796875 184.570312 " fill-opacity="1" fill-rule="nonzero"/><path fill="#ffde59" d="M 59.796875 187.070312 L 60.097656 187.070312 L 60.097656 187.984375 L 59.796875 187.984375 Z M 59.796875 187.070312 " fill-opacity="1" fill-rule="nonzero"/><path fill="#ffde59" d="M 59.796875 185.855469 L 60.097656 185.855469 L 60.097656 186.398438 L 59.796875 186.398438 Z M 59.796875 185.855469 " fill-opacity="1" fill-rule="nonzero"/><path fill="#ffde59" d="M 62.355469 204.003906 L 63.175781 204.003906 L 63.175781 204.207031 L 62.355469 204.207031 Z M 62.355469 204.003906 " fill-opacity="1" fill-rule="nonzero"/><path fill="#ffde59" d="M 63.945312 204.003906 L 64.390625 204.003906 L 64.390625 204.207031 L 63.945312 204.207031 Z M 63.945312 204.003906 " fill-opacity="1" fill-rule="nonzero"/><path fill="#ffde59" d="M 65.160156 204.003906 L 65.675781 204.003906 L 65.675781 204.207031 L 65.160156 204.207031 Z M 65.160156 204.003906 " fill-opacity="1" fill-rule="nonzero"/><path fill="#ffde59" d="M 66.445312 204.003906 L 67.082031 204.003906 L 67.082031 204.207031 L 66.445312 204.207031 Z M 66.445312 204.003906 " fill-opacity="1" fill-rule="nonzero"/><path fill="#ffde59" d="M 67.007812 177.171875 L 67.1875 177.027344 L 67.511719 177.429688 L 67.335938 177.574219 Z M 67.007812 177.171875 " fill-opacity="1" fill-rule="nonzero"/><path fill="#ffde59" d="M 67.820312 178.160156 L 67.996094 178.015625 L 68.277344 178.363281 L 68.101562 178.507812 Z M 67.820312 178.160156 " fill-opacity="1" fill-rule="nonzero"/><g clip-path="url(#31c7685c35)"><path fill="#ffde59" d="M 65.808594 175.335938 L 58.507812 166.292969 L 58.339844 166.4375 L 65.628906 175.480469 Z M 65.808594 175.335938 " fill-opacity="1" fill-rule="nonzero"/></g><path fill="#ffde59" d="M 66.117188 176.082031 L 66.292969 175.9375 L 66.695312 176.433594 L 66.519531 176.578125 Z M 66.117188 176.082031 " fill-opacity="1" fill-rule="nonzero"/><g fill="#ffde59" fill-opacity="1"><g transform="translate(82.592738, 202.317496)"><g><path d="M 11.21875 -12.9375 L 12.59375 -12.9375 L 13.25 0 L 11.90625 0 L 11.40625 -9.703125 L 7.578125 0 L 6.84375 0 L 3.015625 -9.703125 L 2.515625 0 L 1.140625 0 L 1.828125 -12.9375 L 3.21875 -12.9375 L 7.203125 -2.703125 Z M 11.21875 -12.9375 "/></g></g></g><g fill="#ffde59" fill-opacity="1"><g transform="translate(103.313798, 202.317496)"><g><path d="M 11.578125 0 L 10.125 0 L 8.984375 -3.109375 L 2.96875 -3.109375 L 1.8125 0 L 0.390625 0 L 5.25 -12.9375 L 6.703125 -12.9375 Z M 5.96875 -11.1875 L 3.4375 -4.34375 L 8.515625 -4.34375 Z M 5.96875 -11.1875 "/></g></g></g><g fill="#ffde59" fill-opacity="1"><g transform="translate(121.576965, 202.317496)"><g><path d="M 10.34375 0 L 8.6875 0 L 5.28125 -4.734375 L 2.9375 -4.734375 L 2.9375 0 L 1.578125 0 L 1.578125 -12.9375 L 5.53125 -12.9375 C 7.007812 -12.9375 8.164062 -12.582031 9 -11.875 C 9.84375 -11.175781 10.265625 -10.160156 10.265625 -8.828125 C 10.265625 -7.742188 9.96875 -6.859375 9.375 -6.171875 C 8.789062 -5.492188 7.953125 -5.050781 6.859375 -4.84375 Z M 5.484375 -11.703125 L 2.9375 -11.703125 L 2.9375 -5.953125 L 5.46875 -5.953125 C 6.550781 -5.953125 7.390625 -6.1875 7.984375 -6.65625 C 8.578125 -7.132812 8.875 -7.859375 8.875 -8.828125 C 8.875 -9.765625 8.582031 -10.476562 8 -10.96875 C 7.425781 -11.457031 6.585938 -11.703125 5.484375 -11.703125 Z M 5.484375 -11.703125 "/></g></g></g><g fill="#ffde59" fill-opacity="1"><g transform="translate(138.934596, 202.317496)"><g><path d="M 6.734375 0.203125 C 5.679688 0.203125 4.726562 -0.0625 3.875 -0.59375 C 3.019531 -1.125 2.332031 -1.882812 1.8125 -2.875 C 1.300781 -3.863281 1.046875 -5.0625 1.046875 -6.46875 C 1.046875 -7.8125 1.285156 -8.976562 1.765625 -9.96875 C 2.242188 -10.957031 2.90625 -11.726562 3.75 -12.28125 C 4.59375 -12.84375 5.5625 -13.125 6.65625 -13.125 C 7.34375 -13.125 7.976562 -13.023438 8.5625 -12.828125 C 9.15625 -12.628906 9.769531 -12.320312 10.40625 -11.90625 L 9.921875 -10.765625 C 9.390625 -11.117188 8.878906 -11.382812 8.390625 -11.5625 C 7.898438 -11.738281 7.347656 -11.828125 6.734375 -11.828125 C 5.929688 -11.828125 5.210938 -11.625 4.578125 -11.21875 C 3.941406 -10.8125 3.4375 -10.207031 3.0625 -9.40625 C 2.695312 -8.613281 2.515625 -7.640625 2.515625 -6.484375 C 2.515625 -5.390625 2.6875 -4.4375 3.03125 -3.625 C 3.382812 -2.820312 3.878906 -2.203125 4.515625 -1.765625 C 5.148438 -1.328125 5.890625 -1.109375 6.734375 -1.109375 C 7.347656 -1.109375 7.914062 -1.195312 8.4375 -1.375 C 8.957031 -1.5625 9.472656 -1.835938 9.984375 -2.203125 L 10.46875 -1.015625 C 9.90625 -0.628906 9.320312 -0.328125 8.71875 -0.109375 C 8.113281 0.0976562 7.453125 0.203125 6.734375 0.203125 Z M 6.734375 0.203125 "/></g></g></g><g fill="#ffde59" fill-opacity="1"><g transform="translate(156.292226, 202.317496)"><g><path d="M 2.9375 -6.1875 L 2.9375 -1.234375 L 9.8125 -1.234375 L 9.8125 0 L 1.578125 0 L 1.578125 -12.9375 L 9.671875 -12.9375 L 9.671875 -11.703125 L 2.9375 -11.703125 L 2.9375 -7.40625 L 8.859375 -7.40625 L 8.859375 -6.1875 Z M 2.9375 -6.1875 "/></g></g></g><g fill="#ffde59" fill-opacity="1"><g transform="translate(173.261765, 202.317496)"><g><path d="M 9.078125 0 L 1.578125 0 L 1.578125 -12.9375 L 2.953125 -12.9375 L 2.953125 -1.234375 L 9.078125 -1.234375 Z M 9.078125 0 "/></g></g></g><g fill="#ffde59" fill-opacity="1"><g transform="translate(188.99311, 202.317496)"><g><path d="M 6.59375 0.1875 C 5.5 0.1875 4.535156 -0.078125 3.703125 -0.609375 C 2.867188 -1.148438 2.21875 -1.921875 1.75 -2.921875 C 1.28125 -3.921875 1.046875 -5.101562 1.046875 -6.46875 C 1.046875 -7.820312 1.273438 -8.992188 1.734375 -9.984375 C 2.203125 -10.984375 2.851562 -11.753906 3.6875 -12.296875 C 4.53125 -12.847656 5.5 -13.125 6.59375 -13.125 C 7.695312 -13.125 8.660156 -12.851562 9.484375 -12.3125 C 10.316406 -11.78125 10.96875 -11.019531 11.4375 -10.03125 C 11.90625 -9.039062 12.140625 -7.851562 12.140625 -6.46875 C 12.140625 -5.125 11.910156 -3.953125 11.453125 -2.953125 C 10.992188 -1.953125 10.347656 -1.175781 9.515625 -0.625 C 8.679688 -0.0820312 7.707031 0.1875 6.59375 0.1875 Z M 6.59375 -1.109375 C 7.40625 -1.109375 8.117188 -1.320312 8.734375 -1.75 C 9.347656 -2.175781 9.820312 -2.785156 10.15625 -3.578125 C 10.5 -4.378906 10.671875 -5.34375 10.671875 -6.46875 C 10.671875 -7.539062 10.507812 -8.476562 10.1875 -9.28125 C 9.863281 -10.082031 9.394531 -10.707031 8.78125 -11.15625 C 8.175781 -11.601562 7.445312 -11.828125 6.59375 -11.828125 C 5.789062 -11.828125 5.082031 -11.613281 4.46875 -11.1875 C 3.851562 -10.757812 3.375 -10.148438 3.03125 -9.359375 C 2.695312 -8.566406 2.53125 -7.601562 2.53125 -6.46875 C 2.53125 -5.40625 2.691406 -4.46875 3.015625 -3.65625 C 3.347656 -2.851562 3.816406 -2.226562 4.421875 -1.78125 C 5.023438 -1.332031 5.75 -1.109375 6.59375 -1.109375 Z M 6.59375 -1.109375 "/></g></g></g><g fill="#ffde59" fill-opacity="1"><g transform="translate(208.49446, 202.317496)"><g/></g></g><g fill="#ffde59" fill-opacity="1"><g transform="translate(219.476335, 202.317496)"><g><path d="M 11.578125 0 L 10.125 0 L 8.984375 -3.109375 L 2.96875 -3.109375 L 1.8125 0 L 0.390625 0 L 5.25 -12.9375 L 6.703125 -12.9375 Z M 5.96875 -11.1875 L 3.4375 -4.34375 L 8.515625 -4.34375 Z M 5.96875 -11.1875 "/></g></g></g><g fill="#ffde59" fill-opacity="1"><g transform="translate(237.739502, 202.317496)"><g><path d="M 5.796875 0.171875 C 4.398438 0.171875 3.289062 -0.242188 2.46875 -1.078125 C 1.65625 -1.921875 1.25 -3.070312 1.25 -4.53125 L 1.25 -12.9375 L 2.625 -12.9375 L 2.625 -4.578125 C 2.625 -3.472656 2.910156 -2.613281 3.484375 -2 C 4.054688 -1.382812 4.828125 -1.078125 5.796875 -1.078125 C 6.785156 -1.078125 7.566406 -1.382812 8.140625 -2 C 8.710938 -2.613281 9 -3.472656 9 -4.578125 L 9 -12.9375 L 10.375 -12.9375 L 10.375 -4.53125 C 10.375 -3.070312 9.96875 -1.921875 9.15625 -1.078125 C 8.34375 -0.242188 7.222656 0.171875 5.796875 0.171875 Z M 5.796875 0.171875 "/></g></g></g><g fill="#ffde59" fill-opacity="1"><g transform="translate(255.670024, 202.317496)"><g><path d="M 7.9375 -5.4375 L 7.9375 -6.671875 L 10.984375 -6.671875 L 10.96875 -1.25 C 10.320312 -0.8125 9.628906 -0.460938 8.890625 -0.203125 C 8.160156 0.0546875 7.394531 0.1875 6.59375 0.1875 C 5.507812 0.1875 4.546875 -0.078125 3.703125 -0.609375 C 2.867188 -1.140625 2.21875 -1.898438 1.75 -2.890625 C 1.28125 -3.878906 1.046875 -5.066406 1.046875 -6.453125 C 1.046875 -7.867188 1.289062 -9.070312 1.78125 -10.0625 C 2.28125 -11.050781 2.960938 -11.804688 3.828125 -12.328125 C 4.691406 -12.859375 5.671875 -13.125 6.765625 -13.125 C 7.421875 -13.125 8.054688 -13.035156 8.671875 -12.859375 C 9.296875 -12.691406 9.914062 -12.410156 10.53125 -12.015625 L 10.078125 -10.84375 C 9.546875 -11.195312 9.003906 -11.445312 8.453125 -11.59375 C 7.910156 -11.75 7.359375 -11.828125 6.796875 -11.828125 C 5.953125 -11.828125 5.207031 -11.617188 4.5625 -11.203125 C 3.925781 -10.785156 3.425781 -10.175781 3.0625 -9.375 C 2.695312 -8.582031 2.515625 -7.609375 2.515625 -6.453125 C 2.515625 -4.734375 2.890625 -3.410156 3.640625 -2.484375 C 4.398438 -1.566406 5.398438 -1.109375 6.640625 -1.109375 C 7.253906 -1.109375 7.789062 -1.1875 8.25 -1.34375 C 8.71875 -1.5 9.164062 -1.710938 9.59375 -1.984375 L 9.609375 -5.4375 Z M 7.9375 -5.4375 "/></g></g></g><g fill="#ffde59" fill-opacity="1"><g transform="translate(274.007109, 202.317496)"><g><path d="M 5.796875 0.171875 C 4.398438 0.171875 3.289062 -0.242188 2.46875 -1.078125 C 1.65625 -1.921875 1.25 -3.070312 1.25 -4.53125 L 1.25 -12.9375 L 2.625 -12.9375 L 2.625 -4.578125 C 2.625 -3.472656 2.910156 -2.613281 3.484375 -2 C 4.054688 -1.382812 4.828125 -1.078125 5.796875 -1.078125 C 6.785156 -1.078125 7.566406 -1.382812 8.140625 -2 C 8.710938 -2.613281 9 -3.472656 9 -4.578125 L 9 -12.9375 L 10.375 -12.9375 L 10.375 -4.53125 C 10.375 -3.070312 9.96875 -1.921875 9.15625 -1.078125 C 8.34375 -0.242188 7.222656 0.171875 5.796875 0.171875 Z M 5.796875 0.171875 "/></g></g></g><g fill="#ffde59" fill-opacity="1"><g transform="translate(291.937619, 202.317496)"><g><path d="M 4.890625 0.1875 C 4.160156 0.1875 3.429688 0.101562 2.703125 -0.0625 C 1.972656 -0.226562 1.316406 -0.472656 0.734375 -0.796875 L 0.90625 -2.09375 C 1.507812 -1.757812 2.160156 -1.507812 2.859375 -1.34375 C 3.566406 -1.1875 4.222656 -1.109375 4.828125 -1.109375 C 5.390625 -1.109375 5.898438 -1.175781 6.359375 -1.3125 C 6.828125 -1.457031 7.203125 -1.691406 7.484375 -2.015625 C 7.765625 -2.335938 7.90625 -2.765625 7.90625 -3.296875 C 7.90625 -3.816406 7.78125 -4.242188 7.53125 -4.578125 C 7.28125 -4.910156 6.921875 -5.191406 6.453125 -5.421875 C 5.992188 -5.648438 5.457031 -5.867188 4.84375 -6.078125 C 3.6875 -6.453125 2.765625 -6.914062 2.078125 -7.46875 C 1.390625 -8.019531 1.046875 -8.765625 1.046875 -9.703125 C 1.046875 -10.453125 1.234375 -11.078125 1.609375 -11.578125 C 1.992188 -12.085938 2.5 -12.46875 3.125 -12.71875 C 3.757812 -12.976562 4.460938 -13.109375 5.234375 -13.109375 C 5.804688 -13.109375 6.394531 -13.039062 7 -12.90625 C 7.601562 -12.78125 8.191406 -12.578125 8.765625 -12.296875 L 8.546875 -10.984375 C 7.421875 -11.535156 6.332031 -11.8125 5.28125 -11.8125 C 4.769531 -11.8125 4.300781 -11.742188 3.875 -11.609375 C 3.445312 -11.472656 3.109375 -11.253906 2.859375 -10.953125 C 2.617188 -10.648438 2.5 -10.238281 2.5 -9.71875 C 2.5 -9.09375 2.75 -8.597656 3.25 -8.234375 C 3.757812 -7.878906 4.484375 -7.535156 5.421875 -7.203125 C 6.203125 -6.960938 6.890625 -6.675781 7.484375 -6.34375 C 8.078125 -6.007812 8.535156 -5.601562 8.859375 -5.125 C 9.191406 -4.644531 9.359375 -4.039062 9.359375 -3.3125 C 9.359375 -2.539062 9.15625 -1.894531 8.75 -1.375 C 8.351562 -0.863281 7.816406 -0.472656 7.140625 -0.203125 C 6.472656 0.0546875 5.722656 0.1875 4.890625 0.1875 Z M 4.890625 0.1875 "/></g></g></g><g fill="#ffde59" fill-opacity="1"><g transform="translate(308.38969, 202.317496)"><g><path d="M 0.4375 -12.9375 L 9.171875 -12.9375 L 9.171875 -11.703125 L 5.484375 -11.703125 L 5.484375 0 L 4.109375 0 L 4.109375 -11.703125 L 0.4375 -11.703125 Z M 0.4375 -12.9375 "/></g></g></g><g fill="#ffde59" fill-opacity="1"><g transform="translate(324.287364, 202.317496)"><g><path d="M 6.59375 0.1875 C 5.5 0.1875 4.535156 -0.078125 3.703125 -0.609375 C 2.867188 -1.148438 2.21875 -1.921875 1.75 -2.921875 C 1.28125 -3.921875 1.046875 -5.101562 1.046875 -6.46875 C 1.046875 -7.820312 1.273438 -8.992188 1.734375 -9.984375 C 2.203125 -10.984375 2.851562 -11.753906 3.6875 -12.296875 C 4.53125 -12.847656 5.5 -13.125 6.59375 -13.125 C 7.695312 -13.125 8.660156 -12.851562 9.484375 -12.3125 C 10.316406 -11.78125 10.96875 -11.019531 11.4375 -10.03125 C 11.90625 -9.039062 12.140625 -7.851562 12.140625 -6.46875 C 12.140625 -5.125 11.910156 -3.953125 11.453125 -2.953125 C 10.992188 -1.953125 10.347656 -1.175781 9.515625 -0.625 C 8.679688 -0.0820312 7.707031 0.1875 6.59375 0.1875 Z M 6.59375 -1.109375 C 7.40625 -1.109375 8.117188 -1.320312 8.734375 -1.75 C 9.347656 -2.175781 9.820312 -2.785156 10.15625 -3.578125 C 10.5 -4.378906 10.671875 -5.34375 10.671875 -6.46875 C 10.671875 -7.539062 10.507812 -8.476562 10.1875 -9.28125 C 9.863281 -10.082031 9.394531 -10.707031 8.78125 -11.15625 C 8.175781 -11.601562 7.445312 -11.828125 6.59375 -11.828125 C 5.789062 -11.828125 5.082031 -11.613281 4.46875 -11.1875 C 3.851562 -10.757812 3.375 -10.148438 3.03125 -9.359375 C 2.695312 -8.566406 2.53125 -7.601562 2.53125 -6.46875 C 2.53125 -5.40625 2.691406 -4.46875 3.015625 -3.65625 C 3.347656 -2.851562 3.816406 -2.226562 4.421875 -1.78125 C 5.023438 -1.332031 5.75 -1.109375 6.59375 -1.109375 Z M 6.59375 -1.109375 "/></g></g></g></svg>