<svg xmlns="http://www.w3.org/2000/svg" xmlns:xlink="http://www.w3.org/1999/xlink" width="500" zoomAndPan="magnify" viewBox="0 0 375 374.999991" height="500" preserveAspectRatio="xMidYMid meet" version="1.0"><defs><g/><clipPath id="36e801510b"><path d="M 37 170 L 81.347656 170 L 81.347656 209 L 37 209 Z M 37 170 " clip-rule="nonzero"/></clipPath><clipPath id="9260fc8cd7"><path d="M 29.597656 178 L 45 178 L 45 180 L 29.597656 180 Z M 29.597656 178 " clip-rule="nonzero"/></clipPath><clipPath id="0d39420cb9"><path d="M 58 166.28125 L 66 166.28125 L 66 176 L 58 176 Z M 58 166.28125 " clip-rule="nonzero"/></clipPath></defs><g clip-path="url(#36e801510b)"><path fill="#ffde59" d="M 76.488281 188.792969 L 80.851562 194.144531 L 81.03125 194 L 76.789062 188.792969 L 80.671875 188.792969 L 80.671875 188.5625 L 76.609375 188.5625 L 69.765625 180.191406 L 69.585938 180.335938 L 76.296875 188.5625 L 69.476562 188.5625 L 69.476562 187.949219 L 69.261719 187.949219 L 69.261719 188.5625 L 63.609375 188.5625 L 63.609375 179.207031 L 68.621094 179.171875 L 69.078125 179.734375 L 69.246094 179.605469 L 69.246094 179.75 L 69.464844 179.75 L 69.464844 179.160156 L 74.5625 179.121094 L 74.5625 178.929688 L 69.464844 178.964844 L 69.464844 170.96875 L 69.246094 170.96875 L 69.246094 178.976562 L 68.765625 178.976562 L 68.753906 178.953125 L 68.730469 178.976562 L 60.109375 179.039062 L 60.15625 171.378906 L 59.855469 171.378906 L 59.808594 179.039062 L 50.921875 179.097656 L 50.921875 179.292969 L 52.003906 179.277344 L 52.003906 185.882812 L 45.871094 185.84375 L 45.871094 186.519531 L 45.714844 186.519531 L 45.714844 187.335938 L 45.871094 187.335938 L 45.871094 188.105469 L 45.714844 188.105469 L 45.714844 188.492188 L 44.945312 188.492188 L 44.945312 188.71875 L 45.714844 188.71875 L 45.714844 203.992188 L 37.777344 203.992188 L 37.777344 204.195312 L 45.726562 204.195312 L 45.726562 208.707031 L 45.929688 208.707031 L 45.929688 204.195312 L 59.796875 204.195312 L 59.796875 206.289062 L 60.097656 206.289062 L 60.097656 204.195312 L 61.585938 204.195312 L 61.585938 203.992188 L 60.097656 203.992188 L 60.097656 199.636719 L 63.609375 199.636719 L 63.609375 189.210938 C 67.722656 191.351562 65.398438 190.136719 69.261719 192.160156 L 69.261719 203.992188 L 67.851562 203.992188 L 67.851562 204.195312 L 69.261719 204.195312 L 69.261719 206.949219 L 69.476562 206.949219 L 69.476562 204.195312 L 74.5625 204.195312 L 74.5625 203.992188 L 69.476562 203.992188 L 69.476562 192.277344 C 69.5 192.289062 69.523438 192.304688 69.535156 192.316406 L 69.488281 203.957031 L 69.898438 203.957031 L 69.945312 192.074219 C 69.777344 191.988281 69.621094 191.90625 69.464844 191.820312 L 69.464844 188.792969 Z M 69.261719 179.171875 L 69.261719 179.578125 L 68.933594 179.183594 Z M 55.359375 203.644531 L 52.414062 203.644531 L 52.414062 188.765625 L 55.335938 188.78125 Z M 46.277344 188.730469 L 52.003906 188.765625 L 52.003906 204.003906 L 46.242188 204.003906 Z M 52.425781 188.539062 L 52.425781 186.300781 L 55.347656 186.3125 L 55.347656 188.550781 Z M 52.003906 186.300781 L 52.003906 188.539062 L 46.277344 188.503906 L 46.292969 186.265625 Z M 59.796875 204.003906 L 55.765625 204.003906 L 55.753906 188.792969 L 56.574219 188.792969 L 56.574219 188.5625 L 55.753906 188.5625 L 55.753906 185.917969 L 52.425781 185.894531 L 52.425781 179.628906 L 59.820312 179.496094 L 59.796875 182.488281 L 60.097656 182.488281 L 60.121094 179.496094 L 63.222656 179.433594 L 63.222656 188.550781 L 62.851562 188.550781 L 62.851562 188.78125 L 63.128906 188.78125 L 60.109375 190.546875 L 60.109375 188.78125 L 60.492188 188.78125 L 60.492188 188.550781 L 60.046875 188.550781 L 60.046875 188.648438 L 59.796875 188.648438 L 59.796875 190.726562 L 57.332031 192.171875 L 57.257812 199.625 L 59.796875 199.625 Z M 59.796875 191.207031 L 59.796875 199.230469 L 57.667969 199.230469 L 57.738281 192.421875 Z M 63.199219 199.230469 L 60.097656 199.230469 L 60.097656 191.027344 L 63.210938 189.199219 Z M 69.261719 191.703125 C 66.820312 190.425781 66.085938 190.042969 63.679688 188.78125 L 69.261719 188.78125 Z M 69.261719 191.703125 " fill-opacity="1" fill-rule="nonzero"/></g><path fill="#ffde59" d="M 61.25 188.5625 L 62.070312 188.5625 L 62.070312 188.792969 L 61.25 188.792969 Z M 61.25 188.5625 " fill-opacity="1" fill-rule="nonzero"/><path fill="#ffde59" d="M 57.34375 188.5625 L 57.980469 188.5625 L 57.980469 188.792969 L 57.34375 188.792969 Z M 57.34375 188.5625 " fill-opacity="1" fill-rule="nonzero"/><path fill="#ffde59" d="M 58.75 188.5625 L 59.265625 188.5625 L 59.265625 188.792969 L 58.75 188.792969 Z M 58.75 188.5625 " fill-opacity="1" fill-rule="nonzero"/><path fill="#ffde59" d="M 54.671875 195.214844 L 54.671875 195.394531 C 54.960938 195.175781 54.867188 195.355469 54.769531 194.9375 L 54.492188 195.214844 Z M 54.671875 195.214844 " fill-opacity="1" fill-rule="nonzero"/><path fill="#ffde59" d="M 46.855469 179.097656 L 47.375 179.097656 L 47.375 179.292969 L 46.855469 179.292969 Z M 46.855469 179.097656 " fill-opacity="1" fill-rule="nonzero"/><path fill="#ffde59" d="M 48.144531 179.097656 L 48.589844 179.097656 L 48.589844 179.292969 L 48.144531 179.292969 Z M 48.144531 179.097656 " fill-opacity="1" fill-rule="nonzero"/><g clip-path="url(#9260fc8cd7)"><path fill="#ffde59" d="M 44.679688 179.097656 L 29.597656 178.964844 L 29.597656 179.160156 L 44.679688 179.292969 Z M 44.679688 179.097656 " fill-opacity="1" fill-rule="nonzero"/></g><path fill="#ffde59" d="M 49.34375 179.097656 L 50.164062 179.097656 L 50.164062 179.292969 L 49.34375 179.292969 Z M 49.34375 179.097656 " fill-opacity="1" fill-rule="nonzero"/><path fill="#ffde59" d="M 69.261719 180.757812 L 69.476562 180.757812 L 69.476562 181.601562 L 69.261719 181.601562 Z M 69.261719 180.757812 " fill-opacity="1" fill-rule="nonzero"/><path fill="#ffde59" d="M 69.261719 185.871094 L 69.476562 185.871094 L 69.476562 186.9375 L 69.261719 186.9375 Z M 69.261719 185.871094 " fill-opacity="1" fill-rule="nonzero"/><path fill="#ffde59" d="M 69.261719 184.292969 L 69.476562 184.292969 L 69.476562 184.871094 L 69.261719 184.871094 Z M 69.261719 184.292969 " fill-opacity="1" fill-rule="nonzero"/><path fill="#ffde59" d="M 69.261719 182.597656 L 69.476562 182.597656 L 69.476562 183.285156 L 69.261719 183.285156 Z M 69.261719 182.597656 " fill-opacity="1" fill-rule="nonzero"/><path fill="#ffde59" d="M 45.726562 182.621094 L 45.929688 182.621094 L 45.929688 183.257812 L 45.726562 183.257812 Z M 45.726562 182.621094 " fill-opacity="1" fill-rule="nonzero"/><path fill="#ffde59" d="M 45.726562 185.328125 L 45.929688 185.328125 L 45.929688 185.773438 L 45.726562 185.773438 Z M 45.726562 185.328125 " fill-opacity="1" fill-rule="nonzero"/><path fill="#ffde59" d="M 45.726562 181.851562 L 45.917969 181.851562 L 45.917969 179.292969 L 46.085938 179.292969 L 46.085938 179.097656 L 45.917969 179.097656 L 45.917969 171.761719 L 45.726562 171.761719 L 45.726562 179.097656 L 45.449219 179.097656 L 45.449219 179.292969 L 45.726562 179.292969 Z M 45.726562 181.851562 " fill-opacity="1" fill-rule="nonzero"/><path fill="#ffde59" d="M 45.726562 184.027344 L 45.929688 184.027344 L 45.929688 184.546875 L 45.726562 184.546875 Z M 45.726562 184.027344 " fill-opacity="1" fill-rule="nonzero"/><path fill="#ffde59" d="M 59.796875 183.164062 L 60.097656 183.164062 L 60.097656 183.910156 L 59.796875 183.910156 Z M 59.796875 183.164062 " fill-opacity="1" fill-rule="nonzero"/><path fill="#ffde59" d="M 59.796875 184.570312 L 60.097656 184.570312 L 60.097656 185.195312 L 59.796875 185.195312 Z M 59.796875 184.570312 " fill-opacity="1" fill-rule="nonzero"/><path fill="#ffde59" d="M 59.796875 187.070312 L 60.097656 187.070312 L 60.097656 187.984375 L 59.796875 187.984375 Z M 59.796875 187.070312 " fill-opacity="1" fill-rule="nonzero"/><path fill="#ffde59" d="M 59.796875 185.855469 L 60.097656 185.855469 L 60.097656 186.398438 L 59.796875 186.398438 Z M 59.796875 185.855469 " fill-opacity="1" fill-rule="nonzero"/><path fill="#ffde59" d="M 62.355469 204.003906 L 63.175781 204.003906 L 63.175781 204.207031 L 62.355469 204.207031 Z M 62.355469 204.003906 " fill-opacity="1" fill-rule="nonzero"/><path fill="#ffde59" d="M 63.945312 204.003906 L 64.390625 204.003906 L 64.390625 204.207031 L 63.945312 204.207031 Z M 63.945312 204.003906 " fill-opacity="1" fill-rule="nonzero"/><path fill="#ffde59" d="M 65.160156 204.003906 L 65.675781 204.003906 L 65.675781 204.207031 L 65.160156 204.207031 Z M 65.160156 204.003906 " fill-opacity="1" fill-rule="nonzero"/><path fill="#ffde59" d="M 66.445312 204.003906 L 67.082031 204.003906 L 67.082031 204.207031 L 66.445312 204.207031 Z M 66.445312 204.003906 " fill-opacity="1" fill-rule="nonzero"/><path fill="#ffde59" d="M 67.007812 177.171875 L 67.1875 177.027344 L 67.511719 177.429688 L 67.335938 177.574219 Z M 67.007812 177.171875 " fill-opacity="1" fill-rule="nonzero"/><path fill="#ffde59" d="M 67.820312 178.160156 L 67.996094 178.015625 L 68.277344 178.363281 L 68.101562 178.507812 Z M 67.820312 178.160156 " fill-opacity="1" fill-rule="nonzero"/><g clip-path="url(#0d39420cb9)"><path fill="#ffde59" d="M 65.808594 175.335938 L 58.507812 166.292969 L 58.339844 166.4375 L 65.628906 175.480469 Z M 65.808594 175.335938 " fill-opacity="1" fill-rule="nonzero"/></g><path fill="#ffde59" d="M 66.117188 176.082031 L 66.292969 175.9375 L 66.695312 176.433594 L 66.519531 176.578125 Z M 66.117188 176.082031 " fill-opacity="1" fill-rule="nonzero"/><g fill="#ffde59" fill-opacity="1"><g transform="translate(80.408611, 202.268132)"><g><path d="M 6.546875 0.203125 C 5.523438 0.203125 4.597656 -0.0507812 3.765625 -0.5625 C 2.929688 -1.082031 2.265625 -1.828125 1.765625 -2.796875 C 1.273438 -3.765625 1.03125 -4.929688 1.03125 -6.296875 C 1.03125 -7.609375 1.257812 -8.742188 1.71875 -9.703125 C 2.175781 -10.671875 2.816406 -11.425781 3.640625 -11.96875 C 4.460938 -12.507812 5.410156 -12.78125 6.484375 -12.78125 C 7.148438 -12.78125 7.769531 -12.679688 8.34375 -12.484375 C 8.914062 -12.296875 9.515625 -12 10.140625 -11.59375 L 9.671875 -10.46875 C 9.148438 -10.820312 8.648438 -11.082031 8.171875 -11.25 C 7.691406 -11.425781 7.148438 -11.515625 6.546875 -11.515625 C 5.765625 -11.515625 5.066406 -11.316406 4.453125 -10.921875 C 3.835938 -10.523438 3.347656 -9.941406 2.984375 -9.171875 C 2.628906 -8.398438 2.453125 -7.445312 2.453125 -6.3125 C 2.453125 -5.25 2.617188 -4.320312 2.953125 -3.53125 C 3.296875 -2.75 3.773438 -2.144531 4.390625 -1.71875 C 5.015625 -1.289062 5.734375 -1.078125 6.546875 -1.078125 C 7.148438 -1.078125 7.707031 -1.164062 8.21875 -1.34375 C 8.726562 -1.53125 9.226562 -1.796875 9.71875 -2.140625 L 10.1875 -0.984375 C 9.644531 -0.617188 9.078125 -0.328125 8.484375 -0.109375 C 7.898438 0.0976562 7.253906 0.203125 6.546875 0.203125 Z M 6.546875 0.203125 "/></g></g></g><g fill="#ffde59" fill-opacity="1"><g transform="translate(96.12258, 202.268132)"><g><path d="M 6.421875 0.1875 C 5.359375 0.1875 4.421875 -0.0703125 3.609375 -0.59375 C 2.796875 -1.125 2.160156 -1.875 1.703125 -2.84375 C 1.253906 -3.8125 1.03125 -4.960938 1.03125 -6.296875 C 1.03125 -7.617188 1.253906 -8.757812 1.703125 -9.71875 C 2.148438 -10.6875 2.78125 -11.4375 3.59375 -11.96875 C 4.414062 -12.507812 5.359375 -12.78125 6.421875 -12.78125 C 7.492188 -12.78125 8.429688 -12.519531 9.234375 -12 C 10.046875 -11.476562 10.679688 -10.734375 11.140625 -9.765625 C 11.597656 -8.796875 11.828125 -7.640625 11.828125 -6.296875 C 11.828125 -4.992188 11.597656 -3.851562 11.140625 -2.875 C 10.691406 -1.90625 10.0625 -1.148438 9.25 -0.609375 C 8.445312 -0.078125 7.503906 0.1875 6.421875 0.1875 Z M 6.421875 -1.078125 C 7.210938 -1.078125 7.90625 -1.285156 8.5 -1.703125 C 9.09375 -2.117188 9.554688 -2.710938 9.890625 -3.484375 C 10.222656 -4.265625 10.390625 -5.203125 10.390625 -6.296875 C 10.390625 -7.335938 10.234375 -8.25 9.921875 -9.03125 C 9.609375 -9.8125 9.15625 -10.421875 8.5625 -10.859375 C 7.96875 -11.296875 7.253906 -11.515625 6.421875 -11.515625 C 5.640625 -11.515625 4.945312 -11.304688 4.34375 -10.890625 C 3.75 -10.484375 3.285156 -9.890625 2.953125 -9.109375 C 2.628906 -8.335938 2.46875 -7.398438 2.46875 -6.296875 C 2.46875 -5.265625 2.625 -4.351562 2.9375 -3.5625 C 3.257812 -2.78125 3.710938 -2.171875 4.296875 -1.734375 C 4.890625 -1.296875 5.597656 -1.078125 6.421875 -1.078125 Z M 6.421875 -1.078125 "/></g></g></g><g fill="#ffde59" fill-opacity="1"><g transform="translate(113.924546, 202.268132)"><g><path d="M 10.078125 0 L 8.453125 0 L 5.140625 -4.609375 L 2.859375 -4.609375 L 2.859375 0 L 1.53125 0 L 1.53125 -12.59375 L 5.375 -12.59375 C 6.820312 -12.59375 7.953125 -12.25 8.765625 -11.5625 C 9.578125 -10.882812 9.984375 -9.898438 9.984375 -8.609375 C 9.984375 -7.546875 9.695312 -6.679688 9.125 -6.015625 C 8.5625 -5.347656 7.742188 -4.914062 6.671875 -4.71875 Z M 5.34375 -11.390625 L 2.859375 -11.390625 L 2.859375 -5.796875 L 5.328125 -5.796875 C 6.378906 -5.796875 7.191406 -6.023438 7.765625 -6.484375 C 8.347656 -6.953125 8.640625 -7.660156 8.640625 -8.609375 C 8.640625 -9.515625 8.359375 -10.203125 7.796875 -10.671875 C 7.234375 -11.148438 6.414062 -11.390625 5.34375 -11.390625 Z M 5.34375 -11.390625 "/></g></g></g><g fill="#ffde59" fill-opacity="1"><g transform="translate(129.638517, 202.268132)"><g><path d="M 10.078125 0 L 8.453125 0 L 5.140625 -4.609375 L 2.859375 -4.609375 L 2.859375 0 L 1.53125 0 L 1.53125 -12.59375 L 5.375 -12.59375 C 6.820312 -12.59375 7.953125 -12.25 8.765625 -11.5625 C 9.578125 -10.882812 9.984375 -9.898438 9.984375 -8.609375 C 9.984375 -7.546875 9.695312 -6.679688 9.125 -6.015625 C 8.5625 -5.347656 7.742188 -4.914062 6.671875 -4.71875 Z M 5.34375 -11.390625 L 2.859375 -11.390625 L 2.859375 -5.796875 L 5.328125 -5.796875 C 6.378906 -5.796875 7.191406 -6.023438 7.765625 -6.484375 C 8.347656 -6.953125 8.640625 -7.660156 8.640625 -8.609375 C 8.640625 -9.515625 8.359375 -10.203125 7.796875 -10.671875 C 7.234375 -11.148438 6.414062 -11.390625 5.34375 -11.390625 Z M 5.34375 -11.390625 "/></g></g></g><g fill="#ffde59" fill-opacity="1"><g transform="translate(145.352484, 202.268132)"><g><path d="M 2.859375 -6.03125 L 2.859375 -1.203125 L 9.5625 -1.203125 L 9.5625 0 L 1.53125 0 L 1.53125 -12.59375 L 9.40625 -12.59375 L 9.40625 -11.390625 L 2.859375 -11.390625 L 2.859375 -7.21875 L 8.625 -7.21875 L 8.625 -6.03125 Z M 2.859375 -6.03125 "/></g></g></g><g fill="#ffde59" fill-opacity="1"><g transform="translate(160.688453, 202.268132)"><g><path d="M 0.4375 -12.59375 L 8.921875 -12.59375 L 8.921875 -11.390625 L 5.34375 -11.390625 L 5.34375 0 L 4 0 L 4 -11.390625 L 0.4375 -11.390625 Z M 0.4375 -12.59375 "/></g></g></g><g fill="#ffde59" fill-opacity="1"><g transform="translate(174.980424, 202.268132)"><g><path d="M 6.421875 0.1875 C 5.359375 0.1875 4.421875 -0.0703125 3.609375 -0.59375 C 2.796875 -1.125 2.160156 -1.875 1.703125 -2.84375 C 1.253906 -3.8125 1.03125 -4.960938 1.03125 -6.296875 C 1.03125 -7.617188 1.253906 -8.757812 1.703125 -9.71875 C 2.148438 -10.6875 2.78125 -11.4375 3.59375 -11.96875 C 4.414062 -12.507812 5.359375 -12.78125 6.421875 -12.78125 C 7.492188 -12.78125 8.429688 -12.519531 9.234375 -12 C 10.046875 -11.476562 10.679688 -10.734375 11.140625 -9.765625 C 11.597656 -8.796875 11.828125 -7.640625 11.828125 -6.296875 C 11.828125 -4.992188 11.597656 -3.851562 11.140625 -2.875 C 10.691406 -1.90625 10.0625 -1.148438 9.25 -0.609375 C 8.445312 -0.078125 7.503906 0.1875 6.421875 0.1875 Z M 6.421875 -1.078125 C 7.210938 -1.078125 7.90625 -1.285156 8.5 -1.703125 C 9.09375 -2.117188 9.554688 -2.710938 9.890625 -3.484375 C 10.222656 -4.265625 10.390625 -5.203125 10.390625 -6.296875 C 10.390625 -7.335938 10.234375 -8.25 9.921875 -9.03125 C 9.609375 -9.8125 9.15625 -10.421875 8.5625 -10.859375 C 7.96875 -11.296875 7.253906 -11.515625 6.421875 -11.515625 C 5.640625 -11.515625 4.945312 -11.304688 4.34375 -10.890625 C 3.75 -10.484375 3.285156 -9.890625 2.953125 -9.109375 C 2.628906 -8.335938 2.46875 -7.398438 2.46875 -6.296875 C 2.46875 -5.265625 2.625 -4.351562 2.9375 -3.5625 C 3.257812 -2.78125 3.710938 -2.171875 4.296875 -1.734375 C 4.890625 -1.296875 5.597656 -1.078125 6.421875 -1.078125 Z M 6.421875 -1.078125 "/></g></g></g><g fill="#ffde59" fill-opacity="1"><g transform="translate(192.782388, 202.268132)"><g><path d="M 10.078125 0 L 8.453125 0 L 5.140625 -4.609375 L 2.859375 -4.609375 L 2.859375 0 L 1.53125 0 L 1.53125 -12.59375 L 5.375 -12.59375 C 6.820312 -12.59375 7.953125 -12.25 8.765625 -11.5625 C 9.578125 -10.882812 9.984375 -9.898438 9.984375 -8.609375 C 9.984375 -7.546875 9.695312 -6.679688 9.125 -6.015625 C 8.5625 -5.347656 7.742188 -4.914062 6.671875 -4.71875 Z M 5.34375 -11.390625 L 2.859375 -11.390625 L 2.859375 -5.796875 L 5.328125 -5.796875 C 6.378906 -5.796875 7.191406 -6.023438 7.765625 -6.484375 C 8.347656 -6.953125 8.640625 -7.660156 8.640625 -8.609375 C 8.640625 -9.515625 8.359375 -10.203125 7.796875 -10.671875 C 7.234375 -11.148438 6.414062 -11.390625 5.34375 -11.390625 Z M 5.34375 -11.390625 "/></g></g></g><g fill="#ffde59" fill-opacity="1"><g transform="translate(208.496361, 202.268132)"><g/></g></g><g fill="#ffde59" fill-opacity="1"><g transform="translate(218.000346, 202.268132)"><g><path d="M 5.453125 0 L 1.53125 0 L 1.53125 -12.59375 L 5.453125 -12.59375 C 6.679688 -12.59375 7.734375 -12.34375 8.609375 -11.84375 C 9.492188 -11.34375 10.171875 -10.625 10.640625 -9.6875 C 11.117188 -8.75 11.359375 -7.625 11.359375 -6.3125 C 11.359375 -5 11.117188 -3.867188 10.640625 -2.921875 C 10.171875 -1.984375 9.492188 -1.257812 8.609375 -0.75 C 7.734375 -0.25 6.679688 0 5.453125 0 Z M 2.859375 -11.40625 L 2.859375 -1.203125 L 5.40625 -1.203125 C 6.832031 -1.203125 7.941406 -1.644531 8.734375 -2.53125 C 9.535156 -3.425781 9.9375 -4.679688 9.9375 -6.296875 C 9.9375 -7.921875 9.535156 -9.175781 8.734375 -10.0625 C 7.929688 -10.957031 6.8125 -11.40625 5.375 -11.40625 Z M 2.859375 -11.40625 "/></g></g></g><g fill="#ffde59" fill-opacity="1"><g transform="translate(235.334311, 202.268132)"><g><path d="M 2.859375 -6.03125 L 2.859375 -1.203125 L 9.5625 -1.203125 L 9.5625 0 L 1.53125 0 L 1.53125 -12.59375 L 9.40625 -12.59375 L 9.40625 -11.390625 L 2.859375 -11.390625 L 2.859375 -7.21875 L 8.625 -7.21875 L 8.625 -6.03125 Z M 2.859375 -6.03125 "/></g></g></g><g fill="#ffde59" fill-opacity="1"><g transform="translate(250.670286, 202.268132)"><g/></g></g><g fill="#ffde59" fill-opacity="1"><g transform="translate(260.174271, 202.268132)"><g><path d="M 2.859375 0 L 1.53125 0 L 1.53125 -12.59375 L 2.859375 -12.59375 Z M 2.859375 0 "/></g></g></g><g fill="#ffde59" fill-opacity="1"><g transform="translate(269.516266, 202.268132)"><g><path d="M 10.921875 -12.59375 L 12.265625 -12.59375 L 12.90625 0 L 11.59375 0 L 11.109375 -9.453125 L 7.375 0 L 6.65625 0 L 2.9375 -9.453125 L 2.453125 0 L 1.109375 0 L 1.78125 -12.59375 L 3.125 -12.59375 L 7.015625 -2.625 Z M 10.921875 -12.59375 "/></g></g></g><g fill="#ffde59" fill-opacity="1"><g transform="translate(288.506224, 202.268132)"><g><path d="M 8.390625 -15.265625 L 6.859375 -13.453125 L 5.828125 -13.53125 L 7.15625 -15.546875 Z M 6.421875 0.1875 C 5.359375 0.1875 4.421875 -0.0703125 3.609375 -0.59375 C 2.796875 -1.125 2.160156 -1.875 1.703125 -2.84375 C 1.253906 -3.8125 1.03125 -4.960938 1.03125 -6.296875 C 1.03125 -7.617188 1.253906 -8.757812 1.703125 -9.71875 C 2.148438 -10.6875 2.78125 -11.4375 3.59375 -11.96875 C 4.414062 -12.507812 5.359375 -12.78125 6.421875 -12.78125 C 7.492188 -12.78125 8.429688 -12.519531 9.234375 -12 C 10.046875 -11.476562 10.679688 -10.734375 11.140625 -9.765625 C 11.597656 -8.796875 11.828125 -7.640625 11.828125 -6.296875 C 11.828125 -4.992188 11.597656 -3.851562 11.140625 -2.875 C 10.691406 -1.90625 10.0625 -1.148438 9.25 -0.609375 C 8.445312 -0.078125 7.503906 0.1875 6.421875 0.1875 Z M 6.421875 -1.078125 C 7.210938 -1.078125 7.90625 -1.285156 8.5 -1.703125 C 9.09375 -2.117188 9.554688 -2.710938 9.890625 -3.484375 C 10.222656 -4.265625 10.390625 -5.203125 10.390625 -6.296875 C 10.390625 -7.335938 10.234375 -8.25 9.921875 -9.03125 C 9.609375 -9.8125 9.15625 -10.421875 8.5625 -10.859375 C 7.96875 -11.296875 7.253906 -11.515625 6.421875 -11.515625 C 5.640625 -11.515625 4.945312 -11.304688 4.34375 -10.890625 C 3.75 -10.484375 3.285156 -9.890625 2.953125 -9.109375 C 2.628906 -8.335938 2.46875 -7.398438 2.46875 -6.296875 C 2.46875 -5.265625 2.625 -4.351562 2.9375 -3.5625 C 3.257812 -2.78125 3.710938 -2.171875 4.296875 -1.734375 C 4.890625 -1.296875 5.597656 -1.078125 6.421875 -1.078125 Z M 6.421875 -1.078125 "/></g></g></g><g fill="#ffde59" fill-opacity="1"><g transform="translate(306.308195, 202.268132)"><g><path d="M 6.3125 0 L 4.953125 0 L 0.375 -12.59375 L 1.796875 -12.59375 L 5.640625 -1.859375 L 5.65625 -1.859375 L 9.484375 -12.59375 L 10.890625 -12.59375 Z M 6.3125 0 "/></g></g></g><g fill="#ffde59" fill-opacity="1"><g transform="translate(322.526165, 202.268132)"><g><path d="M 2.859375 -6.03125 L 2.859375 -1.203125 L 9.5625 -1.203125 L 9.5625 0 L 1.53125 0 L 1.53125 -12.59375 L 9.40625 -12.59375 L 9.40625 -11.390625 L 2.859375 -11.390625 L 2.859375 -7.21875 L 8.625 -7.21875 L 8.625 -6.03125 Z M 2.859375 -6.03125 "/></g></g></g><g fill="#ffde59" fill-opacity="1"><g transform="translate(337.86214, 202.268132)"><g><path d="M 2.859375 0 L 1.53125 0 L 1.53125 -12.59375 L 2.859375 -12.59375 Z M 2.859375 0 "/></g></g></g><g fill="#ffde59" fill-opacity="1"><g transform="translate(347.204135, 202.268132)"><g><path d="M 4.765625 0.1875 C 4.046875 0.1875 3.332031 0.101562 2.625 -0.0625 C 1.914062 -0.226562 1.28125 -0.46875 0.71875 -0.78125 L 0.875 -2.03125 C 1.46875 -1.707031 2.101562 -1.46875 2.78125 -1.3125 C 3.46875 -1.15625 4.109375 -1.078125 4.703125 -1.078125 C 5.253906 -1.078125 5.753906 -1.144531 6.203125 -1.28125 C 6.648438 -1.425781 7.007812 -1.65625 7.28125 -1.96875 C 7.5625 -2.28125 7.703125 -2.691406 7.703125 -3.203125 C 7.703125 -3.722656 7.578125 -4.144531 7.328125 -4.46875 C 7.085938 -4.789062 6.738281 -5.0625 6.28125 -5.28125 C 5.832031 -5.5 5.3125 -5.710938 4.71875 -5.921875 C 3.59375 -6.285156 2.695312 -6.734375 2.03125 -7.265625 C 1.363281 -7.804688 1.03125 -8.535156 1.03125 -9.453125 C 1.03125 -10.179688 1.210938 -10.789062 1.578125 -11.28125 C 1.941406 -11.78125 2.429688 -12.148438 3.046875 -12.390625 C 3.671875 -12.640625 4.351562 -12.765625 5.09375 -12.765625 C 5.65625 -12.765625 6.226562 -12.703125 6.8125 -12.578125 C 7.40625 -12.453125 7.976562 -12.25 8.53125 -11.96875 L 8.3125 -10.6875 C 7.21875 -11.226562 6.160156 -11.5 5.140625 -11.5 C 4.640625 -11.5 4.179688 -11.429688 3.765625 -11.296875 C 3.359375 -11.171875 3.035156 -10.957031 2.796875 -10.65625 C 2.554688 -10.363281 2.4375 -9.96875 2.4375 -9.46875 C 2.4375 -8.851562 2.679688 -8.367188 3.171875 -8.015625 C 3.660156 -7.671875 4.363281 -7.335938 5.28125 -7.015625 C 6.039062 -6.773438 6.707031 -6.492188 7.28125 -6.171875 C 7.863281 -5.847656 8.3125 -5.453125 8.625 -4.984375 C 8.945312 -4.515625 9.109375 -3.925781 9.109375 -3.21875 C 9.109375 -2.476562 8.910156 -1.851562 8.515625 -1.34375 C 8.128906 -0.84375 7.609375 -0.460938 6.953125 -0.203125 C 6.296875 0.0546875 5.566406 0.1875 4.765625 0.1875 Z M 4.765625 0.1875 "/></g></g></g></svg>